<?xml version="1.0" encoding="UTF-8"?>
<svg version="1.1" xmlns="http://www.w3.org/2000/svg" width="95" height="39">
<path d="M0 0 C31.35 0 62.7 0 95 0 C95 12.87 95 25.74 95 39 C63.65 39 32.3 39 0 39 C0 26.13 0 13.26 0 0 Z " fill="#040507" transform="translate(0,0)"/>
<path d="M0 0 C0 2.31 0 4.62 0 7 C1.98 7 3.96 7 6 7 C5.67 10.96 5.34 14.92 5 19 C3.68 19.33 2.36 19.66 1 20 C0.67 16.37 0.34 12.74 0 9 C-0.165 10.258125 -0.33 11.51625 -0.5 12.8125 C-0.63921875 13.87404297 -0.63921875 13.87404297 -0.78125 14.95703125 C-1.053233 17.15471706 -1.053233 17.15471706 -1 20 C-2.65 20 -4.3 20 -6 20 C-6 15.38 -6 10.76 -6 6 C-8.64 6.33 -11.28 6.66 -14 7 C-14.33 7.99 -14.66 8.98 -15 10 C-13.02 10 -11.04 10 -9 10 C-9 10.99 -9 11.98 -9 13 C-10.98 13 -12.96 13 -15 13 C-15.33 15.31 -15.66 17.62 -16 20 C-17.32 20 -18.64 20 -20 20 C-18.51383399 2.51383399 -18.51383399 2.51383399 -17 1 C-11.37339744 0.22358636 -5.67842778 -0.15347102 0 0 Z " fill="#091232" transform="translate(25,0)"/>
<path d="M0 0 C9.24 0 18.48 0 28 0 C28 2.31 28 4.62 28 7 C28.99 7.33 29.98 7.66 31 8 C30.01 9.485 30.01 9.485 29 11 C28.34 11 27.68 11 27 11 C27 8.03 27 5.06 27 2 C26.01 2 25.02 2 24 2 C23.90912109 2.94359375 23.90912109 2.94359375 23.81640625 3.90625 C23.29004493 9.28323337 22.69453543 14.64215527 22 20 C21.67 20 21.34 20 21 20 C20.34 16.04 19.68 12.08 19 8 C16.02148438 8.04882812 16.02148438 8.04882812 13.04296875 8.09765625 C11 8 11 8 8 7 C7.93941406 7.88042969 7.87882812 8.76085938 7.81640625 9.66796875 C7.73261719 10.82941406 7.64882813 11.99085937 7.5625 13.1875 C7.48128906 14.33605469 7.40007813 15.48460937 7.31640625 16.66796875 C7.04596188 19.51598171 6.62478253 22.21210482 6 25 C5.67 25 5.34 25 5 25 C4.04372362 20.54629322 4.09376685 17.09182255 4.9375 12.625 C5.13214844 11.56539062 5.32679687 10.50578125 5.52734375 9.4140625 C5.68332031 8.61742187 5.83929687 7.82078125 6 7 C4.02 7 2.04 7 0 7 C0 4.69 0 2.38 0 0 Z " fill="#060C22" transform="translate(25,0)"/>
<path d="M0 0 C0.66 0 1.32 0 2 0 C2.33 1.32 2.66 2.64 3 4 C3.66 3.34 4.32 2.68 5 2 C7.58064129 1.85502015 10.04943884 1.81322455 12.625 1.875 C13.33140625 1.88402344 14.0378125 1.89304687 14.765625 1.90234375 C16.51056098 1.92592397 18.25532295 1.96179539 20 2 C20 4.33333333 20 6.66666667 20 9 C17.525 8.505 17.525 8.505 15 8 C15 7.01 15 6.02 15 5 C14.34 5 13.68 5 13 5 C13 6.32 13 7.64 13 9 C12.360625 8.814375 11.72125 8.62875 11.0625 8.4375 C10.0415625 8.2209375 10.0415625 8.2209375 9 8 C8.67 8.33 8.34 8.66 8 9 C5.32461085 9.04315144 2.67305179 9.04680441 0 9 C-0.99 9 -1.98 9 -3 9 C-3.99 9 -4.98 9 -6 9 C-6 9.66 -6 10.32 -6 11 C-6.66 11 -7.32 11 -8 11 C-7.67 8.03 -7.34 5.06 -7 2 C-5.33388095 1.957279 -3.66617115 1.95936168 -2 2 C-1.67 2.33 -1.34 2.66 -1 3 C-0.67 2.01 -0.34 1.02 0 0 Z " fill="#4F4F4F" transform="translate(25,27)"/>
<path d="M0 0 C2.50651042 0.13020833 5.01302083 0.26041667 7.51953125 0.390625 C7.18953125 4.680625 6.85953125 8.970625 6.51953125 13.390625 C2.88953125 13.390625 -0.74046875 13.390625 -4.48046875 13.390625 C-6.00893536 10.33369178 -5.7128932 7.76077953 -5.48046875 4.390625 C-3.93500545 1.52265048 -3.27552281 0.51583036 0 0 Z " fill="#2347BF" transform="translate(65.48046875,6.609375)"/>
<path d="M0 0 C0.99 0 1.98 0 3 0 C3 2.97 3 5.94 3 9 C3.598125 8.34 4.19625 7.68 4.8125 7 C7 5 7 5 10 5 C9.7834375 5.8353125 9.7834375 5.8353125 9.5625 6.6875 C9.376875 7.450625 9.19125 8.21375 9 9 C8.79375 9.825 8.5875 10.65 8.375 11.5 C7.99321256 14.04524959 8.19447527 15.58342581 9 18 C7.35 18 5.7 18 4 18 C4 16.68 4 15.36 4 14 C3.34 14 2.68 14 2 14 C1.67 15.32 1.34 16.64 1 18 C0.01 18 -0.98 18 -2 18 C-2.23268915 11.71739294 -1.40454548 6.11980533 0 0 Z " fill="#2244B9" transform="translate(49,2)"/>
<path d="M0 0 C1.81242052 -0.02687279 3.62495233 -0.04633715 5.4375 -0.0625 C6.44683594 -0.07410156 7.45617187 -0.08570313 8.49609375 -0.09765625 C11 0 11 0 12 1 C12.14115161 3.67058851 12.04247107 6.32432238 12 9 C11.01 8.67 10.02 8.34 9 8 C8.3125 5.9375 8.3125 5.9375 8 4 C5.96758273 4.63979849 5.96758273 4.63979849 4 6 C3.18828772 8.55519921 3.18828772 8.55519921 3 11 C3.99 11.33 4.98 11.66 6 12 C4.68 12 3.36 12 2 12 C2 13.98 2 15.96 2 18 C0.68 18 -0.64 18 -2 18 C-1.48758893 11.97099313 -0.930215 5.97995357 0 0 Z " fill="#254BCB" transform="translate(33,7)"/>
<path d="M0 0 C3.96 0 7.92 0 12 0 C12 0.99 12 1.98 12 3 C9.36 3 6.72 3 4 3 C3.67 4.65 3.34 6.3 3 8 C4.98 8 6.96 8 9 8 C9 8.99 9 9.98 9 11 C7.02 11 5.04 11 3 11 C2.67 13.31 2.34 15.62 2 18 C0.68 18 -0.64 18 -2 18 C-1.48758893 11.97099313 -0.930215 5.97995357 0 0 Z " fill="#254AC9" transform="translate(7,2)"/>
<path d="M0 0 C1.98 0 3.96 0 6 0 C6 0.66 6 1.32 6 2 C7.98 2 9.96 2 12 2 C11.67 3.98 11.34 5.96 11 8 C8.00519083 8.8723412 5.36424089 9.10829766 2.25 9.0625 C1.45078125 9.05347656 0.6515625 9.04445313 -0.171875 9.03515625 C-0.77515625 9.02355469 -1.3784375 9.01195312 -2 9 C-1.125 2.25 -1.125 2.25 0 0 Z " fill="#2B2B2B" transform="translate(5,27)"/>
<path d="M0 0 C0.99 0 1.98 0 3 0 C3 0.99 3 1.98 3 3 C3.99 3 4.98 3 6 3 C6 3.99 6 4.98 6 6 C5.01 6 4.02 6 3 6 C2.67 8.31 2.34 10.62 2 13 C2.66 13 3.32 13 4 13 C4 13.99 4 14.98 4 16 C2.33388095 16.042721 0.66617115 16.04063832 -1 16 C-2 15 -2 15 -2.09765625 12.27734375 C-2.08605469 11.17519531 -2.07445313 10.07304687 -2.0625 8.9375 C-2.05347656 7.83277344 -2.04445313 6.72804688 -2.03515625 5.58984375 C-2.02355469 4.73519531 -2.01195313 3.88054688 -2 3 C-1.34 3 -0.68 3 0 3 C0 2.01 0 1.02 0 0 Z " fill="#254AC9" transform="translate(87,4)"/>
<path d="M0 0 C0.99 0 1.98 0 3 0 C3 5.94 3 11.88 3 18 C1.35 18 -0.3 18 -2 18 C-2.2361959 11.59646678 -1.823321 6.15370839 0 0 Z " fill="#2348C2" transform="translate(21,2)"/>
<path d="M0 0 C4 0 4 0 5.8125 1.25 C7 3 7 3 6.6875 5.1875 C6.3471875 6.0846875 6.3471875 6.0846875 6 7 C5.34 7 4.68 7 4 7 C4 7.99 4 8.98 4 10 C2.68 10 1.36 10 0 10 C0 9.01 0 8.02 0 7 C-0.99 6.67 -1.98 6.34 -3 6 C-2.67 4.68 -2.34 3.36 -2 2 C-1.34 2 -0.68 2 0 2 C0 1.34 0 0.68 0 0 Z " fill="#A58B0B" transform="translate(79,27)"/>
<path d="M0 0 C0.86625 0.2784375 0.86625 0.2784375 1.75 0.5625 C4.20692525 1.04023546 5.64397534 0.75729364 8 0 C8 1.32 8 2.64 8 4 C6.35 4.66 4.7 5.32 3 6 C2.67 8.31 2.34 10.62 2 13 C0.68 13 -0.64 13 -2 13 C-1.85915204 11.20793453 -1.71216299 9.41635083 -1.5625 7.625 C-1.48128906 6.62726562 -1.40007812 5.62953125 -1.31640625 4.6015625 C-1 2 -1 2 0 0 Z " fill="#2448C4" transform="translate(76,7)"/>
<path d="M0 0 C2.97 0 5.94 0 9 0 C9 2.64 9 5.28 9 8 C8.34 8 7.68 8 7 8 C6.67 7.01 6.34 6.02 6 5 C4.35 5.33 2.7 5.66 1 6 C1 6.99 1 7.98 1 9 C0.34 9 -0.32 9 -1 9 C-0.67 6.03 -0.34 3.06 0 0 Z " fill="#A57E00" transform="translate(50,27)"/>
<path d="M0 0 C0.66 0 1.32 0 2 0 C2 2.64 2 5.28 2 8 C-0.64 8.33 -3.28 8.66 -6 9 C-6 9.66 -6 10.32 -6 11 C-6.66 11 -7.32 11 -8 11 C-7.67 8.03 -7.34 5.06 -7 2 C-5.33388095 1.957279 -3.66617115 1.95936168 -2 2 C-1.67 2.33 -1.34 2.66 -1 3 C-0.67 2.01 -0.34 1.02 0 0 Z " fill="#676767" transform="translate(25,27)"/>
<path d="M0 0 C0.99 0.33 1.98 0.66 3 1 C4.1875 4.5625 4.1875 4.5625 5 8 C2.64031256 10.09749995 1.45383006 10.96905704 -1.75 11.1875 C-2.4925 11.125625 -3.235 11.06375 -4 11 C-3.38461538 3.49230769 -3.38461538 3.49230769 -1.4375 1 C-0.963125 0.67 -0.48875 0.34 0 0 Z " fill="#1F3FAB" transform="translate(39,10)"/>
<path d="M0 0 C0.66 0 1.32 0 2 0 C2 1.32 2 2.64 2 4 C2.66 4 3.32 4 4 4 C4 2.68 4 1.36 4 0 C4.66 0 5.32 0 6 0 C6 1.65 6 3.3 6 5 C6.33 3.35 6.66 1.7 7 0 C8.65 0 10.3 0 12 0 C11.34 2.31 10.68 4.62 10 7 C6.7 6.67 3.4 6.34 0 6 C0 4.02 0 2.04 0 0 Z " fill="#9B7500" transform="translate(61,29)"/>
<path d="M0 0 C2.97 0 5.94 0 9 0 C9 2.33333333 9 4.66666667 9 7 C7.35 6.67 5.7 6.34 4 6 C4 5.01 4 4.02 4 3 C3.01 3 2.02 3 1 3 C0.67 3.99 0.34 4.98 0 6 C0 4.02 0 2.04 0 0 Z " fill="#666666" transform="translate(36,29)"/>
<path d="M0 0 C1.32 0 2.64 0 4 0 C3.67 3.96 3.34 7.92 3 12 C1.68 12.33 0.36 12.66 -1 13 C-0.67 8.71 -0.34 4.42 0 0 Z " fill="#2245BB" transform="translate(27,7)"/>
<path d="M0 0 C0.33 0 0.66 0 1 0 C1.85330338 5.83475015 2.48351814 10.44860651 0 16 C-0.99 16 -1.98 16 -3 16 C-3.33266291 9.79029227 -2.45029331 5.71735105 0 0 Z " fill="#2850D8" transform="translate(50,4)"/>
<path d="M0 0 C2.0625 0.4375 2.0625 0.4375 4 1 C4 3.64 4 6.28 4 9 C3.01 8.67 2.02 8.34 1 8 C-0.1875 4.4375 -0.1875 4.4375 -1 1 C-0.67 0.67 -0.34 0.34 0 0 Z " fill="#274ED3" transform="translate(41,7)"/>
<path d="M0 0 C1.98 0 3.96 0 6 0 C6 0.66 6 1.32 6 2 C4.68 2 3.36 2 2 2 C2 2.66 2 3.32 2 4 C2.66 4.33 3.32 4.66 4 5 C3.01 5 2.02 5 1 5 C1 5.66 1 6.32 1 7 C2.32 7.33 3.64 7.66 5 8 C3.02 8 1.04 8 -1 8 C-0.67 5.36 -0.34 2.72 0 0 Z " fill="#7A7A7A" transform="translate(5,27)"/>
<path d="M0 0 C0.66 0 1.32 0 2 0 C2 1.98 2 3.96 2 6 C0.35 6.33 -1.3 6.66 -3 7 C-2.25 2.25 -2.25 2.25 0 0 Z " fill="#040919" transform="translate(39,10)"/>
<path d="M0 0 C1.32 0 2.64 0 4 0 C3.75 2.375 3.75 2.375 3 5 C0.9375 6.3125 0.9375 6.3125 -1 7 C-1.04254356 5.00045254 -1.04080783 2.99958364 -1 1 C-0.67 0.67 -0.34 0.34 0 0 Z " fill="#040815" transform="translate(65,10)"/>
<path d="M0 0 C-0.33 1.98 -0.66 3.96 -1 6 C-2.65 6.33 -4.3 6.66 -6 7 C-5.67 5.02 -5.34 3.04 -5 1 C-2 0 -2 0 0 0 Z " fill="#686868" transform="translate(17,29)"/>
<path d="M0 0 C0.33 0 0.66 0 1 0 C1 2.97 1 5.94 1 9 C0.01 9 -0.98 9 -2 9 C-2.25 3.375 -2.25 3.375 0 0 Z " fill="#274FD6" transform="translate(28,11)"/>
<path d="M0 0 C0.33 0 0.66 0 1 0 C1.185625 1.2065625 1.185625 1.2065625 1.375 2.4375 C1.58125 3.283125 1.7875 4.12875 2 5 C2.66 5.33 3.32 5.66 4 6 C4 6.66 4 7.32 4 8 C2.35 8 0.7 8 -1 8 C-1.04241723 5.66705225 -1.04092937 3.33297433 -1 1 C-0.67 0.67 -0.34 0.34 0 0 Z " fill="#2448C5" transform="translate(54,12)"/>
<path d="M0 0 C2.31 0 4.62 0 7 0 C6.360625 0.4125 5.72125 0.825 5.0625 1.25 C2.79009069 3.17810487 2.39803561 4.11424181 2 7 C1.34 7 0.68 7 0 7 C0 4.69 0 2.38 0 0 Z " fill="#000103" transform="translate(25,0)"/>
<path d="M0 0 C0.66 0 1.32 0 2 0 C2 1.32 2 2.64 2 4 C2.66 4 3.32 4 4 4 C4.33 3.01 4.66 2.02 5 1 C5 2.65 5 4.3 5 6 C3.35 6 1.7 6 0 6 C0 4.02 0 2.04 0 0 Z " fill="#C19300" transform="translate(61,29)"/>
<path d="M0 0 C2.31 0 4.62 0 7 0 C7 1.65 7 3.3 7 5 C6.34 5 5.68 5 5 5 C4.67 4.34 4.34 3.68 4 3 C1.97536745 2.34786708 1.97536745 2.34786708 0 2 C0 1.34 0 0.68 0 0 Z " fill="#2A53E0" transform="translate(65,7)"/>
<path d="M0 0 C1.32 0 2.64 0 4 0 C4 1.98 4 3.96 4 6 C4.99 6.33 5.98 6.66 7 7 C6.01 8.485 6.01 8.485 5 10 C4.34 10 3.68 10 3 10 C3 7.03 3 4.06 3 1 C2.01 0.67 1.02 0.34 0 0 Z " fill="#081130" transform="translate(49,1)"/>
<path d="M0 0 C0.33 0 0.66 0 1 0 C1 2.64 1 5.28 1 8 C0.01 7.67 -0.98 7.34 -2 7 C-2.125 4.625 -2.125 4.625 -2 2 C-1.34 1.34 -0.68 0.68 0 0 Z " fill="#2953E0" transform="translate(62,11)"/>
<path d="M0 0 C0.33 0 0.66 0 1 0 C1 3.96 1 7.92 1 12 C0.67 12 0.34 12 0 12 C-0.144375 11.236875 -0.28875 10.47375 -0.4375 9.6875 C-0.9632594 6.91827092 -0.9632594 6.91827092 -2 4 C-1.0625 1.8125 -1.0625 1.8125 0 0 Z " fill="#040816" transform="translate(25,8)"/>
<path d="M0 0 C0.99 0 1.98 0 3 0 C3 1.98 3 3.96 3 6 C2.01 6 1.02 6 0 6 C0 4.02 0 2.04 0 0 Z " fill="#264ED2" transform="translate(21,2)"/>
<path d="M0 0 C0.66 0 1.32 0 2 0 C2 0.66 2 1.32 2 2 C2.66 2.33 3.32 2.66 4 3 C2.125 4.0625 2.125 4.0625 0 5 C-0.66 4.67 -1.32 4.34 -2 4 C-2 3.34 -2 2.68 -2 2 C-1.34 2 -0.68 2 0 2 C0 1.34 0 0.68 0 0 Z " fill="#201B02" transform="translate(80,29)"/>
<path d="M0 0 C0 1.98 0 3.96 0 6 C-0.99 6.33 -1.98 6.66 -3 7 C-3 5.02 -3 3.04 -3 1 C-1 0 -1 0 0 0 Z " fill="#264CCD" transform="translate(22,9)"/>
</svg>
